<svg xmlns="http://www.w3.org/2000/svg" fill="none" viewBox="0 0 200 200"><g clip-path="url(#a)"><circle cx="100" cy="100" r="99" fill="#DDDFE4" stroke="#fff" stroke-width="2"/><path fill="#8997B3" fill-opacity=".9" fill-rule="evenodd" d="M166.7 160.7a86.5 86.5 0 0 1-66.6 31c-26.9 0-51-12.2-66.8-31.3a80.9 80.9 0 0 1 66.6-30.6 80.7 80.7 0 0 1 66.8 30.9Z" clip-rule="evenodd"/><path fill="#8997B3" fill-opacity=".9" d="M133 82.5c0 18-14.7 32.5-32.9 32.5a32.7 32.7 0 0 1-32.8-32.5C67.3 64.5 82 50 100 50a32.7 32.7 0 0 1 33 32.5Z"/></g><defs><clipPath id="a"><path fill="#fff" d="M0 0h200v200H0z"/></clipPath></defs></svg>