<svg xmlns="http://www.w3.org/2000/svg" fill="none" viewBox="0 0 600 400"><path fill="#DDDFE4" d="M0 0h600v400H0z"/><path fill="#B4BBC7" d="M282.5 190a7.5 7.5 0 1 0 0-15 7.5 7.5 0 0 0 0 15Zm7.5 55h20c18.9 0 28.3 0 34.1-5.9 3-2.8 4.4-6.6 5.1-11.9L321.7 197a5.9 5.9 0 0 0-8.4-.2L290 220l-10.8-10.8a5.8 5.8 0 0 0-8.4.2l-19.5 20.8c.9 3.8 2.3 6.6 4.6 9 5.8 5.8 15.2 5.8 34.1 5.8Z" opacity=".4"/><path stroke="#B4BBC7" stroke-linecap="round" stroke-linejoin="round" stroke-width="4" d="M310 155h-20c-18.9 0-28.3 0-34.1 5.9-5.9 5.8-5.9 15.2-5.9 34.1v10c0 18.9 0 28.3 5.9 34.1 5.8 5.9 15.2 5.9 34.1 5.9h20c18.9 0 28.3 0 34.1-5.9 5.9-5.8 5.9-15.2 5.9-34.1v-10c0-18.9 0-28.3-5.9-34.1-5.8-5.9-15.2-5.9-34.1-5.9Z"/><path stroke="#B4BBC7" stroke-linecap="round" stroke-linejoin="round" stroke-width="4" d="M282.5 190a7.5 7.5 0 1 0 0-15 7.5 7.5 0 0 0 0 15Zm65 35-25.8-28.1a5.9 5.9 0 0 0-8.4-.2L290 220l-10.8-10.8a5.8 5.8 0 0 0-8.4.2L252.5 230"/></svg>