<svg enable-background="new 0 0 200 135" height="259.807621" viewBox="0 0 200 135" width="384.900179" xmlns="http://www.w3.org/2000/svg" xmlns:xlink="http://www.w3.org/1999/xlink"><clipPath id="a"><path d="m0 1.693h200v131.613h-200z"/></clipPath><g fill="#1b2655"><path d="m109.947 129.333h-19.977l8.886-50.278h-20.844l12.1-15.824h50.976l-2.793 15.824h-19.467"/><path d="m197.379 78.551 2.621-14.852c-3.84-.938-9.23-2.244-16.271-2.244-25.504 0-40.863 17.319-44.124 35.76-3.441 19.479 7.956 32.86 29.874 33.805 9.061.388 16.707-1.632 19.052-2.284l2.526-14.325c-3.34 1.091-8.144 2.284-13.252 2.284-14.033 0-19.455-8.992-17.474-20.226 1.854-10.49 11.317-19.678 23.602-20.034.751-.023 1.468.035 2.138.085 4.671.377 8.427 1.329 11.308 2.031"/><path d="m41.452 112.988-15.526 20.319-25.926-70.079h26.51"/></g><path d="m43.772 109.925 45.105-58.946h-23.816" fill="#1e9ad7"/><path d="m43.772 109.925 45.105-58.946h-23.816z" fill="none" stroke="#1e9ad7" stroke-width=".046"/><path d="m107.117 1.866h-24.391l-10.308 28.66h17.911" fill="#fcaf1a"/><path clip-path="url(#a)" d="m107.117 1.866h-24.391l-10.308 28.66h17.911z" fill="none" stroke="#fcaf1a" stroke-width=".046"/><path d="m59.749 30.526-15.977 79.399 28.646-79.399" fill="#b3d236"/><path d="m59.749 30.526-15.977 79.399 28.646-79.399z" fill="none" stroke="#b3d236" stroke-width=".046"/><path d="m72.418 30.526-28.646 79.399 46.557-79.399" fill="#ef5ca0"/><path d="m72.418 30.526-28.646 79.399 46.557-79.399z" fill="none" stroke="#ef5ca0" stroke-width=".046"/></svg>