<svg xmlns="http://www.w3.org/2000/svg" viewBox="0 0 200 135"><clipPath id="a"><path d="M0 1.7h200v131.6H0z"/></clipPath><path fill="currentColor" d="M110 129.3H90l8.9-50.2H78l12.1-15.9h51l-2.8 15.9h-19.5m78.6-.5 2.6-14.9a62 62 0 0 0-16.3-2.2 43.1 43.1 0 0 0-44.1 35.7c-3.4 19.5 8 32.9 29.9 33.8a63 63 0 0 0 19-2.3l2.6-14.3a44.2 44.2 0 0 1-13.3 2.3c-14 0-19.5-9-17.5-20.2a24.8 24.8 0 0 1 23.6-20h2.2c4.6.4 8.4 1.3 11.3 2M41.5 113l-15.6 20.3L0 63.3h26.5"/><path fill="#1e9ad7" d="m43.8 110 45-59H65.2"/><path fill="none" d="m43.8 110 45-59H65.2z"/><path fill="#fcaf1a" d="M107.1 1.9H82.7L72.4 30.5h18"/><path fill="none" d="M107.1 1.9H82.7L72.4 30.5h18z" clip-path="url(#a)"/><path fill="#b3d236" d="m59.7 30.5-16 79.4 28.7-79.4"/><path fill="none" d="m59.7 30.5-16 79.4 28.7-79.4z"/><path fill="#ef5ca0" d="M72.4 30.5 43.8 110l46.5-79.4"/><path fill="none" d="M72.4 30.5 43.8 110l46.5-79.4z"/></svg>
